<?xml version="1.0" encoding="UTF-8"?>
<svg id="Camada_1" data-name="Camada 1" xmlns="http://www.w3.org/2000/svg" viewBox="0 0 265.83 265.83">
  <defs>
    <style>
      .cls-1 {
        fill: #282828;
      }

      .cls-2 {
        fill: #aac811;
      }
    </style>
  </defs>
  <rect class="cls-1" width="265.83" height="265.83" rx="65" ry="65"/>
  <path class="cls-2" d="M188.48,139.83c-6.35-6.64-15.98-11.7-28.88-15.18l-41.94-11.58c-2.92-.85-5.06-1.91-6.42-3.18-1.37-1.27-2.05-3.08-2.05-5.44,0-3.76,3.32-6.47,9.96-8.12,6.64-1.65,17.34-2.47,32.12-2.47,4.42,0,9.84.14,16.24.42,6.4.28,13.88.8,22.45,1.55l4.09-35.44c-7.72-.94-15.04-1.65-21.96-2.12-6.92-.47-13.58-.71-19.98-.71-.3,0-.58,0-.87,0v-28.37s-35.3,0-35.3,0v31.32c-10.26,1.97-18.77,4.91-25.53,8.83-13.56,7.86-20.33,19.84-20.33,35.94,0,10.07,2.52,18.1,7.55,24.08,5.03,5.98,12.54,10.43,22.52,13.34l48.72,14.12c3.11.94,5.37,2.07,6.78,3.39,1.41,1.32,2.12,3.11,2.12,5.37,0,3.86-2.87,6.66-8.61,8.4-5.74,1.74-15.02,2.61-27.82,2.61-4.61,0-10.97-.38-19.06-1.13-8.1-.75-18.07-1.88-29.94-3.39l-4.52,36.57c6.68,1.41,14.42,2.47,23.23,3.18,7.38.59,15.69.93,24.9,1.03v23.73h35.3v-25.89c11.41-1.91,20.69-5.06,27.84-9.46,12.61-7.77,18.92-19.6,18.92-35.51,0-10.64-3.18-19.27-9.53-25.91Z"/>
</svg>